# xmcd CD database file
#
# Track frame offsets:
#	187
#	29807
#	70742
#	104352
#	166565
#	210952
#
# Disc length: 3320 seconds
#
# Revision: 0
# Processed by: cddbd v1.5.1PL2 Copyright (c) Steve Scherf et al.
# Submitted via: CDex 1.51
#
DISCID=460cf606
DTITLE=John Coltrane - spiritual trane (best)
DYEAR=1999
DGENRE=Jazz
TTITLE0=Tunji
TTITLE1=Wise One
TTITLE2=A Love Supreme Part II: Resolution
TTITLE3=Spiritual
TTITLE4=Song of Praise
TTITLE5=Offering
EXTD=YEAR: 1999
EXTT0=
EXTT1=
EXTT2=
EXTT3=
EXTT4=
EXTT5=
PLAYORDER=
